<svg xmlns="http://www.w3.org/2000/svg" viewBox="-22747.5 5998.5 24.877 25.498">
  <defs>
    <style>
      .cls-1 {
        fill: none;
        stroke: #e3334e;
        stroke-miterlimit: 10;
      }
    </style>
  </defs>
  <g id="Group_2889" data-name="Group 2889" transform="translate(-23594 5961)">
    <path id="Path_1172" data-name="Path 1172" class="cls-1" d="M16.6,9.3l1.8,1.8a19.193,19.193,0,0,1-3.3,4.5A19.424,19.424,0,0,1,10.5,19L8.7,17.2a1.391,1.391,0,0,0-1.9,0L3.4,20.6a1.391,1.391,0,0,0,0,1.9l1.9,1.8c2.4,1.9,8.7-.4,13.4-5.1,4.9-4.9,7-11.4,4.7-13.6L21.9,4A1.391,1.391,0,0,0,20,4L16.6,7.4A1.389,1.389,0,0,0,16.6,9.3Z" transform="translate(846.507 37.5)"/>
    <g id="Group_1363" data-name="Group 1363" transform="translate(846.507 37.5)">
      <path id="Path_299" data-name="Path 299" class="cls-1" d="M.5,10.5A9.289,9.289,0,0,1,3.4,3.4,10.045,10.045,0,0,1,10.6.5"/>
    </g>
    <g id="Group_1364" data-name="Group 1364" transform="translate(846.507 37.5)">
      <path id="Path_300" data-name="Path 300" class="cls-1" d="M3.6,11.3A7.31,7.31,0,0,1,5.8,5.8a7.937,7.937,0,0,1,5.6-2.2"/>
    </g>
    <path id="Path_1173" data-name="Path 1173" class="cls-1" d="M7,12.2A4.842,4.842,0,0,1,8.5,8.3a5.135,5.135,0,0,1,3.7-1.5" transform="translate(846.507 37.5)"/>
  </g>
</svg>
