<svg xmlns="http://www.w3.org/2000/svg" viewBox="0 0 14 19.553">
  <defs>
    <style>
      .cls-1, .cls-3 {
        fill: none;
      }

      .cls-1 {
        stroke: #e3334e;
      }

      .cls-2 {
        stroke: none;
      }
    </style>
  </defs>
  <g id="Group_3533" data-name="Group 3533" transform="translate(-272.5 -378.447)">
    <line id="Line_2687" data-name="Line 2687" class="cls-1" y2="5" transform="translate(277.5 388.5)"/>
    <g id="Group_3532" data-name="Group 3532">
      <g id="Rectangle_689" data-name="Rectangle 689" class="cls-1" transform="translate(274 385)">
        <path class="cls-2" d="M0,0H11a0,0,0,0,1,0,0V11a2,2,0,0,1-2,2H2a2,2,0,0,1-2-2V0A0,0,0,0,1,0,0Z"/>
        <path class="cls-3" d="M1,.5h9a.5.5,0,0,1,.5.5V11A1.5,1.5,0,0,1,9,12.5H2A1.5,1.5,0,0,1,.5,11V1A.5.5,0,0,1,1,.5Z"/>
      </g>
      <path id="Path_2989" data-name="Path 2989" class="cls-1" d="M4.936,2.5V5.085A2.468,2.468,0,1,1,0,5.085V2.5" transform="translate(282.07 386.5) rotate(180)"/>
      <line id="Line_2685" data-name="Line 2685" class="cls-1" x2="14" transform="translate(272.5 383.5)"/>
      <line id="Line_2686" data-name="Line 2686" class="cls-1" y2="5" transform="translate(279.5 388.5)"/>
      <line id="Line_2688" data-name="Line 2688" class="cls-1" y2="5" transform="translate(281.5 388.5)"/>
    </g>
  </g>
</svg>
