<svg xmlns="http://www.w3.org/2000/svg" viewBox="0 0 14.1 20.6">
  <defs>
    <style>
      .cls-1 {
        opacity: 0.6;
      }

      .cls-2 {
        fill: none;
        stroke: #000;
        stroke-miterlimit: 10;
      }
    </style>
  </defs>
  <g id="Group_3094" data-name="Group 3094" class="cls-1" transform="translate(-676.5 -718.5)">
    <path id="Path_2713" data-name="Path 2713" class="cls-2" d="M11.1,21.6H4a2.946,2.946,0,0,1-3-3V11.5a2.946,2.946,0,0,1,3-3h7.1a2.946,2.946,0,0,1,3,3v7.1A3.009,3.009,0,0,1,11.1,21.6Z" transform="translate(676 717)"/>
    <line id="Line_2581" data-name="Line 2581" class="cls-2" y2="4.1" transform="translate(683.6 730)"/>
    <path id="Path_2714" data-name="Path 2714" class="cls-2" d="M3.4,7.4V5.2A4.247,4.247,0,0,1,7.7,1h0a4.225,4.225,0,0,1,4.2,4.2V7.653" transform="translate(676 718)"/>
  </g>
</svg>
