<svg xmlns="http://www.w3.org/2000/svg" viewBox="-19477.5 6910.131 48.42 52.269">
  <defs>
    <style>
      .cls-1 {
        fill: none;
      }

      .cls-1, .cls-2 {
        stroke: #e3334e;
        stroke-miterlimit: 10;
      }

      .cls-2 {
        fill: #fff;
      }

      .cls-3 {
        font-size: 16px;
        font-family: OpenSans-Semibold, Open Sans;
        font-weight: 600;
      }
    </style>
  </defs>
  <g id="Group_3280" data-name="Group 3280" transform="translate(-20070 5759)">
    <g id="Group_2532" data-name="Group 2532" transform="translate(1240.92 2350.9) rotate(180)">
      <path id="Path_2234" data-name="Path 2234" class="cls-1" d="M44.032,51.869H9.973A3,3,0,0,1,7,48.9v-37.3a2.126,2.126,0,0,1,.631-1.442l9.821-9.01A1.834,1.834,0,0,1,18.8.6H43.942a3,3,0,0,1,2.973,2.973V48.985A2.845,2.845,0,0,1,44.032,51.869Z" transform="translate(593.5 1147.4)"/>
      <path id="Path_2235" data-name="Path 2235" class="cls-1" d="M7.3,11.086h7.888a2.886,2.886,0,0,0,2.86-2.86V.442" transform="translate(593.47 1147.816)"/>
    </g>
    <path id="Path_2236" data-name="Path 2236" class="cls-2" d="M35.6,42.2H2.5a2.946,2.946,0,0,1-3-3V23.7a2.946,2.946,0,0,1,3-3H35.6a2.946,2.946,0,0,1,3,3V39.2A3.009,3.009,0,0,1,35.6,42.2Z" transform="translate(593.5 1138.4)"/>
    <text id="PDF" class="cls-3" transform="translate(597.334 1175.929)"><tspan x="0" y="0">PDF</tspan></text>
  </g>
</svg>
