<?xml version="1.0" encoding="utf-8"?>
<!-- Generator: Adobe Illustrator 21.0.0, SVG Export Plug-In . SVG Version: 6.00 Build 0)  -->
<svg version="1.1" id="Слой_1" xmlns="http://www.w3.org/2000/svg" xmlns:xlink="http://www.w3.org/1999/xlink" x="0px" y="0px"
	 viewBox="0 0 155 115" style="enable-background:new 0 0 155 115;" xml:space="preserve">
<style type="text/css">
	.st0{fill:none;stroke:#EA203F;stroke-width:3;stroke-miterlimit:10;}
</style>
<path class="st0" d="M75.4,68.3V33.7 M113.3,43.7c-16.7,7-28,24.7-30,44 M126.7,84c-15,0-30.3,13.7-34.7,29 M59.7,113
	c-1.3-14.7-19-29.3-37-29.3 M68,87.7c-1.8-19.9-11.7-38.7-28.7-44 M75.4,0.7v6 M75.4,17.3V23 M64.3,11.8h6 M80.9,11.8h5.7 M143.1,90
	v4.7 M149.5,83.6h4.7 M143.1,77.2v-4.7 M136.7,83.6H132 M20.6,49v4.7 M27,42.6h4.7 M20.6,36.2v-4.7 M14.2,42.6H9.5 M129.2,33.9v14.3
	 M122.8,41.1h13 M7.2,76.9v14.3 M0.8,84.1h13"/>
</svg>
