<?xml version="1.0" encoding="utf-8"?>
<!-- Generator: Adobe Illustrator 21.0.0, SVG Export Plug-In . SVG Version: 6.00 Build 0)  -->
<svg version="1.1" id="Слой_1" xmlns="http://www.w3.org/2000/svg" xmlns:xlink="http://www.w3.org/1999/xlink" x="0px" y="0px"
	 viewBox="0 0 156 113" style="enable-background:new 0 0 156 113;" xml:space="preserve">
<style type="text/css">
	.st0{fill:none;stroke:#E3334E;stroke-width:2;stroke-miterlimit:10;}
	.st1{fill:none;stroke:#E3334E;stroke-width:3;stroke-miterlimit:10;}
</style>
<g>
	<path class="st0" d="M98.3,25l2.1,4c1,1.9-0.4,4.2-2.6,4.2H58.1c-2.3,0-3.7-2.6-2.4-4.5l2.9-4.2c0.8-1.2,2.2-1.9,3.7-1.9h32.1
		C96,22.6,97.6,23.6,98.3,25z"/>
	<path class="st0" d="M100.4,42.7c1,1.9-0.4,4.2-2.6,4.2H58.1c-2.3,0-3.7-2.6-2.4-4.5"/>
	<path class="st0" d="M100.4,55.5c1,1.9-0.4,4.2-2.6,4.2H58.1c-2.3,0-3.7-2.6-2.4-4.5"/>
</g>
<g>
	<path class="st0" d="M5.5,38.5L2.1,45c-0.5,0.9,0.2,1.9,1.2,1.9h36.6c1.2,0,2.2-0.9,2.4-2l1.4-7.5c0.1-0.6-0.4-1.2-1-1.2H9.2
		C7.7,36.2,6.2,37.1,5.5,38.5z"/>
	<path class="st0" d="M2.3,57.5c-0.5,1,0.2,2.3,1.4,2.3h35.8c1.4,0,2.7-0.9,3.2-2.2"/>
</g>
<g>
	<path class="st0" d="M150.5,38.5l3.4,6.5c0.5,0.9-0.2,1.9-1.2,1.9h-36.6c-1.2,0-2.2-0.9-2.4-2l-1.4-7.5c-0.1-0.6,0.4-1.2,1-1.2
		h33.5C148.3,36.2,149.7,37.1,150.5,38.5z"/>
	<path class="st0" d="M153.7,57.5c0.5,1-0.2,2.3-1.4,2.3h-35.8c-1.4,0-2.7-0.9-3.2-2.2"/>
</g>
<path class="st1" d="M11.4,26.8V8.4c0-3.5,2.8-6.3,6.3-6.3h120.6c3.5,0,6.3,2.8,6.3,6.3v18.5"/>
<path class="st1" d="M144,109.5H12c-2.9,0-5.2-2.3-5.2-5.2V77.1c0-1,0.8-1.8,1.8-1.8h138.8c1,0,1.8,0.8,1.8,1.8v27.2
	C149.2,107.2,146.9,109.5,144,109.5z"/>
<g>
	<circle class="st0" cx="57.4" cy="89.5" r="5.1"/>
	<circle class="st0" cx="98.6" cy="89.5" r="5.1"/>
</g>
<polyline class="st0" points="62.1,88.1 67.3,93.3 88.4,93.3 93.9,87.8 "/>
<polyline class="st0" points="57.6,94.5 63.4,100.3 91.8,100.3 97.5,94.6 "/>
<line class="st0" x1="25.4" y1="90.6" x2="38.6" y2="90.6"/>
<line class="st0" x1="117.4" y1="90.6" x2="130.6" y2="90.6"/>
</svg>
